<svg width="24" height="28" viewBox="0 0 24 28" fill="none" xmlns="http://www.w3.org/2000/svg">
<path d="M23.018 21.8205C22.605 22.7987 22.1162 23.6992 21.5499 24.5271C20.778 25.6557 20.1459 26.4369 19.6588 26.8707C18.9037 27.5828 18.0947 27.9475 17.2283 27.9682C16.6064 27.9682 15.8564 27.7867 14.9833 27.4186C14.1074 27.0522 13.3024 26.8707 12.5663 26.8707C11.7944 26.8707 10.9665 27.0522 10.0809 27.4186C9.19402 27.7867 8.47955 27.9786 7.93328 27.9976C7.10251 28.0339 6.27444 27.6588 5.44788 26.8707C4.92033 26.3989 4.26047 25.59 3.46998 24.4441C2.62185 23.2205 1.92456 21.8015 1.3783 20.1838C0.793273 18.4364 0.5 16.7444 0.5 15.1062C0.5 13.2298 0.895413 11.6114 1.68742 10.2551C2.30986 9.16575 3.13794 8.30642 4.17434 7.67557C5.21074 7.04473 6.33057 6.72326 7.53652 6.70269C8.19639 6.70269 9.06171 6.91199 10.137 7.32334C11.2093 7.73607 11.8979 7.94537 12.1997 7.94537C12.4254 7.94537 13.1903 7.70063 14.4869 7.21272C15.7131 6.76024 16.748 6.57289 17.5958 6.64669C19.8931 6.83681 21.619 7.76545 22.7668 9.43848C20.7122 10.715 19.6959 12.503 19.7161 14.7967C19.7346 16.5833 20.3667 18.07 21.6089 19.2505C22.1718 19.7983 22.8005 20.2218 23.5 20.5225C23.3483 20.9736 23.1882 21.4057 23.018 21.8205ZM17.7492 0.56016C17.7492 1.96048 17.2503 3.26795 16.2558 4.47814C15.0558 5.91681 13.6042 6.74814 12.0302 6.61696C12.0101 6.44897 11.9985 6.27216 11.9985 6.08636C11.9985 4.74206 12.5692 3.30338 13.5827 2.12707C14.0886 1.53149 14.7322 1.03627 15.5125 0.641218C16.2912 0.252064 17.0278 0.0368539 17.7205 0C17.7407 0.187201 17.7492 0.374414 17.7492 0.560141V0.56016Z" fill="white"/>
</svg>
